HIERARCHY
ROOT hip
{
	OFFSET 0.000000 0.000000 0.000000 
	CHANNELS 6 Xposition Yposition Zposition Xrotation Zrotation Yrotation
	JOINT abdomen
	{
		OFFSET 0.000000 3.402643 0.000000 
		CHANNELS 3 Xrotation Zrotation Yrotation
		JOINT chest
		{
			OFFSET 0.000000 8.438565 -0.680529 
			CHANNELS 3 Xrotation Zrotation Yrotation
			JOINT neck
			{
				OFFSET 0.000000 10.207942 -0.272212 
				CHANNELS 3 Xrotation Zrotation Yrotation
				JOINT head
				{
					OFFSET 0.000000 3.130431 0.000000 
					CHANNELS 3 Xrotation Zrotation Yrotation
					End Site
					{
						OFFSET 0.000000 3.130435 0.000000 
					}
				}
			}
			JOINT lCollar
			{
				OFFSET 3.470700 6.669187 -0.816635 
				CHANNELS 3 Yrotation Zrotation Xrotation
				JOINT lShldr
				{
					OFFSET 3.198488 0.000000 0.000000 
					CHANNELS 3 Zrotation Yrotation Xrotation
					JOINT lForeArm
					{
						OFFSET 10.139888 0.000000 0.000000 
						CHANNELS 3 Yrotation Zrotation Xrotation
						JOINT lHand
						{
							OFFSET 8.370511 0.000000 0.000000 
							CHANNELS 3 Zrotation Yrotation Xrotation
							End Site
							{
								OFFSET 4.083176 0.000000 0.000000 
							}
						}
					}
				}
			}
			JOINT rCollar
			{
				OFFSET -3.470700 6.669187 -0.816635 
				CHANNELS 3 Yrotation Zrotation Xrotation
				JOINT rShldr
				{
					OFFSET -3.198488 0.000000 0.000000 
					CHANNELS 3 Zrotation Yrotation Xrotation
					JOINT rForeArm
					{
						OFFSET -10.139888 0.000000 0.000000 
						CHANNELS 3 Yrotation Zrotation Xrotation
						JOINT rHand
						{
							OFFSET -8.370511 0.000000 0.000000 
							CHANNELS 3 Zrotation Yrotation Xrotation
							End Site
							{
								OFFSET -4.083176 0.000000 0.000000 
							}
						}
					}
				}
			}
		}
	}
	JOINT lThigh
	{
		OFFSET 5.308129 -1.633274 1.361059 
		CHANNELS 3 Xrotation Zrotation Yrotation
		JOINT lShin
		{
			OFFSET -2.041588 -20.007561 0.000000 
			CHANNELS 3 Xrotation Zrotation Yrotation
			JOINT lFoot
			{
				OFFSET 0.000000 -19.190928 -1.224953 
				CHANNELS 3 Xrotation Yrotation Zrotation
				End Site
				{
					OFFSET 0.000000 -2.449906 4.627600 
				}
			}
		}
	}
	JOINT rThigh
	{
		OFFSET -5.308129 -1.633274 1.361059 
		CHANNELS 3 Xrotation Zrotation Yrotation
		JOINT rShin
		{
			OFFSET 2.041588 -20.007561 0.000000 
			CHANNELS 3 Xrotation Zrotation Yrotation
			JOINT rFoot
			{
				OFFSET 0.000000 -19.190928 -1.224953 
				CHANNELS 3 Xrotation Yrotation Zrotation
				End Site
				{
					OFFSET 0.000000 -2.449906 4.627600 
				}
			}
		}
	}
}
MOTION
Frames: 18
Frame Time: 0.016667
-11.155499 35.562164 9.358424 -4.298370 -6.855847 104.195511 16.356499 9.889130 -14.191283 -20.839844 0.000000 0.000000 -29.759489 -2.509023 -22.096863 -2.520846 -1.255050 0.218350 -4.754609 -0.109182 -0.002653 -43.780029 37.255669 0.881587 -61.428734 -33.905590 23.056925 -7.340847 20.806898 6.239675 4.754609 0.109182 -0.002671 79.176903 -36.595810 -23.174519 49.942871 4.930450 33.058929 11.431278 -3.208150 41.564808 -46.739235 5.312237 -7.955012 75.295227 11.554699 -10.917372 -41.944088 -2.428786 -10.244944 -31.606512 -30.050524 -16.355148 73.953186 12.861266 8.744957 -41.376495 13.458883 -6.242875 
-11.147877 35.563690 9.355783 -4.298458 -6.865585 104.147415 16.339754 9.866695 -14.157201 -20.839844 0.000000 0.000000 -29.644485 -2.486143 -21.940092 -2.520846 -1.255050 0.218350 -4.754609 -0.109182 -0.002653 -43.749805 37.260113 0.818588 -61.437695 -33.811306 22.988230 -7.260443 20.661396 6.237968 4.754609 0.109182 -0.002671 79.162384 -36.675419 -23.175774 49.733368 4.949041 33.197437 11.424153 -3.229748 41.692154 -46.752361 5.361345 -7.943625 75.309265 11.512421 -10.909272 -41.975380 -2.424010 -10.230789 -31.617048 -30.042044 -16.335911 73.963829 12.841746 8.752274 -41.366436 13.542893 -6.377132 
-11.140270 35.562164 9.355428 -4.288711 -6.875411 104.117676 16.330757 9.863532 -14.148768 -20.839844 0.000000 0.000000 -29.520258 -2.454500 -21.808304 -2.520846 -1.255050 0.218350 -4.754609 -0.109182 -0.002653 -43.712746 37.264431 0.757785 -61.469402 -33.738106 22.905600 -7.175275 20.535397 6.217329 4.754609 0.109182 -0.002671 79.145012 -36.734779 -23.179050 49.576042 4.964296 33.274776 11.389332 -3.287840 41.731113 -46.748325 5.380966 -7.922189 75.342529 11.490671 -10.871598 -42.020676 -2.414345 -10.176343 -31.617048 -30.042044 -16.335905 73.964859 12.821260 8.749710 -41.362751 13.574237 -6.434248 
-11.133671 35.556068 9.357816 -4.269126 -6.885324 104.096527 16.320417 9.854365 -14.152164 -20.839844 0.000000 0.000000 -29.387537 -2.413401 -21.720518 -2.520846 -1.255050 0.218350 -4.754609 -0.109182 -0.002653 -43.669010 37.258892 0.716913 -61.507732 -33.683502 22.807610 -7.084088 20.438585 6.173955 4.754609 0.109182 -0.002671 79.144264 -36.791031 -23.196129 49.529556 4.984394 33.255821 11.348848 -3.404638 41.643452 -46.772720 5.341884 -7.926106 75.384003 11.491632 -10.819634 -42.031124 -2.411700 -10.065392 -31.658138 -30.074781 -16.320999 74.035255 12.792519 8.792410 -41.411354 13.588592 -6.440450 
-11.128597 35.546432 9.361419 -4.220119 -6.905237 104.092102 16.299273 9.826654 -14.161655 -20.839844 0.000000 0.000000 -29.285185 -2.369895 -21.659853 -2.520846 -1.255050 0.218350 -4.754609 -0.109182 -0.002653 -43.611736 37.243416 0.698166 -61.548332 -33.649162 22.717354 -7.002749 20.370892 6.120411 4.754609 0.109182 -0.002671 79.133934 -36.829315 -23.207388 49.547607 5.000796 33.168503 11.286959 -3.551399 41.488171 -46.782299 5.263759 -7.935534 75.406425 11.483020 -10.767350 -42.006310 -2.374701 -9.933415 -31.688314 -30.105463 -16.298244 74.066910 12.763079 8.787283 -41.454380 13.567106 -6.356504 
-11.124027 35.535759 9.364365 -4.141597 -6.925404 104.064575 16.276247 9.761440 -14.183579 -20.839844 0.000000 0.000000 -29.222254 -2.324245 -21.605301 -2.520846 -1.255050 0.218350 -4.754609 -0.109182 -0.002653 -43.547768 37.218105 0.687531 -61.585808 -33.629913 22.641752 -6.954488 20.322536 6.078735 4.754609 0.109182 -0.002671 79.119057 -36.839890 -23.207102 49.569256 5.003882 33.082241 11.202277 -3.669483 41.341896 -46.793327 5.165603 -7.937524 75.429909 11.475795 -10.683013 -41.999081 -2.320265 -9.835804 -31.764967 -30.181080 -16.243303 74.148483 12.695230 8.842145 -41.509769 13.526847 -6.274417 
-11.119968 35.524590 9.365786 -4.053316 -6.955387 104.046265 16.253651 9.683468 -14.197364 -20.839844 0.000000 0.000000 -29.248280 -2.308484 -21.534506 -2.520846 -1.255050 0.218350 -4.754609 -0.109182 -0.002653 -43.477131 37.182953 0.690919 -61.584633 -33.623055 22.630957 -6.907897 20.303129 6.079431 4.754609 0.109182 -0.002671 79.096512 -36.821209 -23.214617 49.564671 4.995755 33.023518 11.090392 -3.714109 41.264343 -46.791962 5.078166 -7.924604 75.435463 11.424284 -10.654471 -41.967617 -2.304587 -9.758692 -31.834330 -30.260927 -16.210411 74.201347 12.626102 8.853585 -41.572510 13.507002 -6.159893 
-11.115391 35.515961 9.365734 -3.984618 -6.975452 104.019806 16.241812 9.601919 -14.201327 -20.839844 0.000000 0.000000 -29.342999 -2.306775 -21.449232 -2.520846 -1.255050 0.218350 -4.754609 -0.109182 -0.002653 -43.399536 37.157490 0.708340 -61.559818 -33.624084 22.675671 -6.865274 20.293274 6.119803 4.754609 0.109182 -0.002671 79.052811 -36.777916 -23.202658 49.512604 4.965562 33.007820 10.969126 -3.684721 41.273602 -46.767895 5.019779 -7.913696 75.449974 11.393102 -10.606952 -41.958202 -2.278977 -9.662067 -31.893667 -30.320835 -16.183990 74.252991 12.548833 8.904460 -41.625454 13.484930 -6.088241 
-11.111324 35.509872 9.364872 -3.925753 -6.995430 104.012825 16.230467 9.529741 -14.204196 -20.839844 0.000000 0.000000 -29.487799 -2.327766 -21.364862 -2.520846 -1.255050 0.218350 -4.754609 -0.109182 -0.002653 -43.311630 37.142342 0.726256 -61.523987 -33.614754 22.734177 -6.802271 20.312422 6.184227 4.754609 0.109182 -0.002671 79.015862 -36.732315 -23.198511 49.475742 4.932463 33.005257 10.881762 -3.647776 41.312466 -46.749706 4.990391 -7.893900 75.444115 11.355597 -10.579502 -41.918518 -2.333035 -9.512311 -31.919657 -30.373793 -16.143835 74.293892 12.519376 8.920565 -41.648743 13.459167 -6.060496 
-11.108799 35.505302 9.363501 -3.886481 -7.005498 104.008720 16.218744 9.470299 -14.211850 -20.839844 0.000000 0.000000 -29.632616 -2.348657 -21.280384 -2.520846 -1.255050 0.218350 -4.754609 -0.109182 -0.002653 -43.230366 37.137024 0.736064 -61.493656 -33.610565 22.791180 -6.758754 20.331551 6.245260 4.754609 0.109182 -0.002671 78.993568 -36.694889 -23.194513 49.483864 4.894360 32.987648 10.860986 -3.647614 41.331963 -46.743561 4.941447 -7.876052 75.446297 11.346666 -10.538818 -41.862549 -2.376899 -9.328246 -31.962156 -30.418709 -16.136484 74.325951 12.471051 8.920808 -41.648796 13.463362 -6.117304 
-11.108799 35.502754 9.361571 -3.847287 -7.025307 104.024796 16.216436 9.401291 -14.221560 -20.839844 0.000000 0.000000 -29.738562 -2.362413 -21.213469 -2.520846 -1.255050 0.218350 -4.754609 -0.109182 -0.002653 -43.179474 37.139797 0.738513 -61.483982 -33.613647 22.807379 -6.750533 20.370302 6.256421 4.754609 0.109182 -0.002671 78.997429 -36.672329 -23.215971 49.566227 4.885759 32.952358 10.891029 -3.669652 41.322407 -46.745808 4.921919 -7.878370 75.440605 11.295644 -10.546366 -41.824078 -2.405173 -9.180228 -31.990505 -30.465847 -16.118349 74.346649 12.460219 8.919786 -41.651230 13.444308 -6.132817 
-11.110310 35.500732 9.359237 -3.827689 -7.035211 104.052345 16.203890 9.345207 -14.238321 -20.839844 0.000000 0.000000 -29.785219 -2.362148 -21.151091 -2.520846 -1.255050 0.218350 -4.754609 -0.109182 -0.002653 -43.155579 37.151299 0.725971 -61.512985 -33.604404 22.758785 -6.752047 20.428741 6.205166 4.754609 0.109182 -0.002671 79.002480 -36.662556 -23.210285 49.676933 4.879718 32.915749 10.938705 -3.706515 41.293297 -46.738136 4.883096 -7.854050 75.421089 11.294972 -10.539127 -41.805588 -2.426849 -9.149157 -32.008209 -30.521465 -16.119518 74.366676 12.460121 8.924068 -41.669834 13.456469 -6.096447 
-11.111835 35.498199 9.356951 -3.817930 -7.045035 104.081085 16.201679 9.320441 -14.255517 -20.839844 0.000000 0.000000 -29.772224 -2.348224 -21.083918 -2.520846 -1.255050 0.218350 -4.754609 -0.109182 -0.002653 -43.172237 37.170349 0.717370 -61.594086 -33.613384 22.628557 -6.759066 20.545660 6.090112 4.754609 0.109182 -0.002671 79.002739 -36.643806 -23.204613 49.782589 4.891717 32.904018 10.949242 -3.728574 41.283768 -46.759941 4.863519 -7.856428 75.450562 11.295724 -10.545388 -41.816654 -2.435986 -9.243514 -31.999529 -30.572050 -16.139803 74.395706 12.460259 8.959489 -41.710594 13.449607 -6.022424 
-11.110310 35.495659 9.355175 -3.827770 -7.044955 104.101814 16.210209 9.314253 -14.268313 -20.839844 0.000000 0.000000 -29.729965 -2.335611 -21.018644 -2.520846 -1.255050 0.218350 -4.754609 -0.109182 -0.002653 -43.202477 37.188213 0.715917 -61.671234 -33.637043 22.493759 -6.737463 20.672371 5.947317 4.754609 0.109182 -0.002671 78.984787 -36.620686 -23.177490 49.837765 4.901877 32.927158 10.914103 -3.720883 41.323093 -46.762386 4.863337 -7.885131 75.449898 11.295479 -10.564573 -41.860298 -2.400388 -9.336621 -31.968803 -30.598957 -16.178299 74.423210 12.490200 9.004489 -41.758507 13.463923 -5.892395 
-11.105747 35.493629 9.353805 -3.827689 -7.035211 104.110939 16.218739 9.308067 -14.279527 -20.839844 0.000000 0.000000 -29.678705 -2.340063 -20.954197 -2.520846 -1.255050 0.218350 -4.754609 -0.109182 -0.002653 -43.246559 37.185360 0.721584 -61.693733 -33.670788 22.427685 -6.701230 20.769745 5.851273 4.754609 0.109182 -0.002671 78.969086 -36.567516 -23.146702 49.834801 4.911660 32.978893 10.834627 -3.683679 41.391174 -46.765419 4.843735 -7.897007 75.507805 11.329367 -10.526970 -41.903423 -2.387842 -9.303863 -31.961456 -30.632370 -16.203396 74.452492 12.480904 9.042680 -41.828991 13.454533 -5.720921 
-11.100666 35.492607 9.352433 -3.837528 -7.035131 104.131660 16.237980 9.298337 -14.281017 -20.839844 0.000000 0.000000 -29.656361 -2.343534 -20.878099 -2.520846 -1.255050 0.218350 -4.754609 -0.109182 -0.002653 -43.287369 37.172043 0.754806 -61.613430 -33.688339 22.497412 -6.659546 20.760008 5.864214 4.754609 0.109182 -0.002671 78.966454 -36.515030 -23.108402 49.787041 4.908103 33.033661 10.757757 -3.609954 41.468922 -46.738346 4.824340 -7.900692 75.565865 11.357307 -10.500710 -41.940380 -2.440932 -9.061399 -31.941271 -30.650787 -16.222662 74.461571 12.490596 9.061518 -41.870419 13.438902 -5.594632 
-11.097622 35.492104 9.350806 -3.827609 -7.025467 104.149353 16.245193 9.286144 -14.304066 -20.839844 0.000000 0.000000 -29.693121 -2.352549 -20.801926 -2.520846 -1.255050 0.218350 -4.754609 -0.109182 -0.002653 -43.328358 37.148937 0.788021 -61.461948 -33.706860 22.653755 -6.633330 20.643253 5.944913 4.754609 0.109182 -0.002671 78.986778 -36.475918 -23.097380 49.752674 4.891668 33.062859 10.704486 -3.543760 41.536652 -46.743576 4.785203 -7.914892 75.635262 11.383264 -10.451492 -41.960705 -2.483894 -8.784306 -31.930223 -30.677879 -16.217878 74.470398 12.509700 9.077597 -41.904736 13.400599 -5.513749 
-11.098141 35.493118 9.349082 -3.817850 -7.035291 104.168335 16.262672 9.261035 -14.320094 -20.839844 0.000000 0.000000 -29.769106 -2.368281 -20.717819 -2.520846 -1.255050 0.218350 -4.754609 -0.109182 -0.002653 -43.359013 37.136150 0.821734 -61.303688 -33.712925 22.806257 -6.670503 20.487684 6.027055 4.754609 0.109182 -0.002671 79.043007 -36.450897 -23.106077 49.760590 4.871873 33.057255 10.735768 -3.507161 41.556099 -46.738354 4.756188 -7.933383 75.665459 11.383636 -10.438932 -41.943470 -2.525800 -8.600975 -31.911449 -30.708332 -16.244843 74.470734 12.509728 9.068018 -41.906593 13.383776 -5.466908 
